# xmcd
#
# Track frame offsets:
#	150
#	15662
#	38143
#	51988
#	69716
#	85759
#	102269
#	118348
#	139611
#	158137
#
# Disc length: 2327 seconds
#
# Revision: 0
# Processed by: cddbd v1.5.2PL0 Copyright (c) Steve Scherf et al.
# Submitted via: audiograbber 1.83.01
#
DISCID=8409150a
DTITLE=Etheridge, Melissa - Skin
DYEAR=2001
DGENRE=Rock
TTITLE0=Lover please
TTITLE1=The prison
TTITLE2=Walking on water
TTITLE3=Down to one
TTITLE4=Goodnight
TTITLE5=It's only me
TTITLE6=I want to be in love
TTITLE7=Please forgive me
TTITLE8=The different
TTITLE9=Heal me
EXTD=LABEL =Island Def Jam Music Group\nID =314-548661-2\nUPC =731454-866125
EXTD=\nCOPYRIGHT =2001
EXTT0=
EXTT1=
EXTT2=
EXTT3=
EXTT4=
EXTT5=
EXTT6=
EXTT7=
EXTT8=
EXTT9=
PLAYORDER=
